<?xml version="1.0" encoding="utf-8"?>
<svg version="1.1" id="Layer_1" xmlns="http://www.w3.org/2000/svg" xmlns:xlink="http://www.w3.org/1999/xlink" x="0px" y="0px"
	 viewBox="0 0 100 100" style="enable-background:new 0 0 100 100;" xml:space="preserve">
<style type="text/css">
	.st0{fill:#FFBF00;}
	.st1{fill:#231F20;}
</style>
<g>
	<circle class="st0" cx="70.6" cy="71.2" r="9.2"/>
	<g>
		<g>
			<g>
				<path class="st1" d="M46.6,76.5h-3.3v-4.8h11.4v-12c0-2.5,2-4.5,4.5-4.5h4.6c-0.3-0.2-0.6-0.3-1-0.3H43.3v-3.2h19.6
					c1.1,0,2-0.9,2-2V37.2c0-1.1-0.9-2-2-2H43.3V32H63c1.1,0,2-0.9,2-2V17.3c0-1.1-0.9-2-2-2H18.1c-1.1,0-2,0.9-2,2V30
					c0,1.1,0.9,2,2,2h19.4v3.2H17.9c-1.1,0-2,0.9-2,2v12.7c0,1.1,0.9,2,2,2h19.6v3.2H17.9c-1.1,0-2,0.9-2,2v12.7c0,1.1,0.9,2,2,2
					h19.6v4.8h-3.3c-1.7,0-3,1.3-3,3v1.9c0,1.7,1.3,3,3,3h12.3c1.7,0,3-1.3,3-3v-1.9C49.6,77.9,48.2,76.5,46.6,76.5z M46.9,58.9h1v9
					h-1V58.9z M60.1,37.4c1.2,0,2.2,1,2.2,2.2c0,1.2-1,2.2-2.2,2.2c-1.2,0-2.2-1-2.2-2.2C57.8,38.4,58.8,37.4,60.1,37.4z M56.2,38.4
					c0.7,0,1.2,0.6,1.2,1.2s-0.6,1.2-1.2,1.2s-1.2-0.6-1.2-1.2S55.5,38.4,56.2,38.4z M46.9,39h1v9h-1V39z M20.8,28.2h-1v-9h1V28.2z
					 M24.9,28.2h-1v-9h1V28.2z M29.7,28.2h-1v-9h1V28.2z M34.3,28.2h-1v-9h1V28.2z M60.2,17.5c1.2,0,2.2,1,2.2,2.2
					c0,1.2-1,2.2-2.2,2.2C59,22,58,21,58,19.7C58,18.5,59,17.5,60.2,17.5z M56.3,18.5c0.7,0,1.2,0.6,1.2,1.2S57,21,56.3,21
					s-1.2-0.6-1.2-1.2S55.7,18.5,56.3,18.5z M47.1,19.2h1v9h-1V19.2z M42.3,19.2h1v9h-1V19.2z M20.6,48h-1v-9h1V48z M24.8,48h-1v-9
					h1V48z M29.5,48h-1v-9h1V48z M34.2,48h-1v-9h1V48z M20.6,67.9h-1v-9h1V67.9z M24.8,67.9h-1v-9h1V67.9z M29.5,67.9h-1v-9h1V67.9z
					 M34.2,67.9h-1v-9h1V67.9z M38.4,67.9h-1v-9h1V67.9z M38.4,48h-1v-9h1V48z M38.6,28.2h-1v-9h1V28.2z M43.2,67.9h-1v-9h1V67.9z
					 M43.2,48h-1v-9h1V48z"/>
				<path class="st1" d="M29.9,77.7h-5.3v5.3h5.3c-0.2-0.5-0.3-1.1-0.3-1.7v-1.9C29.6,78.9,29.7,78.3,29.9,77.7z"/>
				<path class="st1" d="M50.5,77.7c0.2,0.5,0.3,1.1,0.3,1.7v1.9c0,0.6-0.1,1.2-0.3,1.7h4.2v-5.3H50.5z"/>
			</g>
			<g>
				<path class="st1" d="M81.1,57.8H60.2c-1.7,0-3,1.3-3,3v20.9c0,1.7,1.3,3,3,3h20.9c1.7,0,3-1.3,3-3V60.8
					C84.1,59.2,82.7,57.8,81.1,57.8z M70.6,80.2c-4.9,0-8.9-4-8.9-8.9c0-4.9,4-8.9,8.9-8.9c4.9,0,8.9,4,8.9,8.9
					C79.6,76.2,75.6,80.2,70.6,80.2z"/>
			</g>
		</g>
	</g>
	<path class="st1" d="M70.6,75.2c0.7,0,1.3-0.6,1.3-1.3v-8.6c0-0.7-0.6-1.3-1.3-1.3c-0.7,0-1.3,0.6-1.3,1.3v8.6
		C69.3,74.6,69.9,75.2,70.6,75.2z"/>
	<circle class="st1" cx="70.7" cy="77" r="1.5"/>
</g>
</svg>
