<?xml version="1.0" ?><!DOCTYPE svg  PUBLIC '-//W3C//DTD SVG 1.0//EN'  'http://www.w3.org/TR/2001/REC-SVG-20010904/DTD/svg10.dtd'>
<svg enable-background="new 0 0 100 100" height="100px" id="Layer_1" version="1.0" viewBox="0 0 100 100" width="100px" xml:space="preserve" xmlns="http://www.w3.org/2000/svg" xmlns:xlink="http://www.w3.org/1999/xlink">
    <g><circle cx="70.6" cy="71.2" r="9.2" fill="#5cb85c"/>
        <g><g>
<path d="M46.558,76.544h-3.25v-4.771h11.409V59.816c0-2.481,2.019-4.5,4.5-4.5h4.608     c-0.287-0.159-0.613-0.258-0.965-0.258H43.308v-3.155H62.86c1.105,0,2-0.896,2-2V37.189c0-1.104-0.895-2-2-2H43.308v-3.155     h19.716c1.104,0,2-0.896,2-2V17.32c0-1.104-0.896-2-2-2h-44.94c-1.105,0-2,0.896-2,2v12.714c0,1.104,0.895,2,2,2h19.391v3.155     H17.92c-1.104,0-2,0.896-2,2v12.714c0,1.104,0.896,2,2,2h19.554v3.155H17.92c-1.104,0-2,0.896-2,2v12.715c0,1.104,0.896,2,2,2     h19.554v4.771h-3.25c-1.656,0-3,1.344-3,3v1.916c0,1.657,1.344,3,3,3h12.334c1.656,0,3-1.343,3-3v-1.916     C49.558,77.888,48.214,76.544,46.558,76.544z M46.903,58.916h1v9h-1V58.916z M60.06,37.395c1.225,0,2.219,0.993,2.219,2.219     s-0.994,2.219-2.219,2.219c-1.227,0-2.219-0.993-2.219-2.219S58.833,37.395,60.06,37.395z M56.179,38.379     c0.682,0,1.234,0.553,1.234,1.234s-0.553,1.234-1.234,1.234s-1.234-0.553-1.234-1.234S55.497,38.379,56.179,38.379z      M46.903,39.047h1v9h-1V39.047z M20.774,28.178h-1v-9h1V28.178z M24.94,28.178h-1v-9h1V28.178z M29.69,28.178h-1v-9h1V28.178z      M34.315,28.178h-1v-9h1V28.178z M60.222,17.525c1.226,0,2.219,0.993,2.219,2.219s-0.993,2.219-2.219,2.219     s-2.219-0.993-2.219-2.219S58.996,17.525,60.222,17.525z M56.341,18.51c0.682,0,1.234,0.553,1.234,1.234     s-0.553,1.234-1.234,1.234s-1.234-0.553-1.234-1.234S55.659,18.51,56.341,18.51z M47.065,19.178h1v9h-1V19.178z M42.315,19.178h1     v9h-1V19.178z M20.611,48.047h-1v-9h1V48.047z M24.778,48.047h-1v-9h1V48.047z M29.528,48.047h-1v-9h1V48.047z M34.153,48.047h-1     v-9h1V48.047z M20.611,67.916h-1v-9h1V67.916z M24.778,67.916h-1v-9h1V67.916z M29.528,67.916h-1v-9h1V67.916z M34.153,67.916h-1     v-9h1V67.916z M38.403,67.916h-1v-9h1V67.916z M38.403,48.047h-1v-9h1V48.047z M38.565,28.178h-1v-9h1V28.178z M43.153,67.916h-1     v-9h1V67.916z M43.153,48.047h-1v-9h1V48.047z" fill="#231F20"/><path d="M29.896,77.748h-5.3v5.334h5.3c-0.218-0.527-0.341-1.104-0.341-1.709v-1.916     C29.556,78.852,29.679,78.276,29.896,77.748z" fill="#231F20"/>
<path d="M50.547,77.748c0.218,0.528,0.341,1.104,0.341,1.709v1.916c0,0.605-0.123,1.182-0.341,1.709h4.17v-5.334     H50.547z" fill="#231F20"/></g>
<g><path d="M81.08,57.816H60.217c-1.657,0-3,1.343-3,3V81.68c0,1.657,1.343,3,3,3H81.08c1.657,0,3-1.343,3-3V60.816     C84.08,59.159,82.737,57.816,81.08,57.816z M70.648,80.165c-4.917,0-8.917-4-8.917-8.917c0-4.916,4-8.917,8.917-8.917     s8.917,4.001,8.917,8.917C79.565,76.165,75.565,80.165,70.648,80.165z" fill="#231F20"/></g></g>
<polygon fill="#231F20" points="66.384,69.336 65.292,70.914 68.934,76.165 76.005,67.788 75.095,66.331 69.146,73.09  "/></g></svg>